<mxfile host="app.diagrams.net" agent="Mozilla/5.0 (Windows NT 10.0; Win64; x64) AppleWebKit/537.36 (KHTML, like Gecko) Chrome/141.0.0.0 Safari/537.36" version="28.2.5">
  <diagram name="PÃ¡gina-1" id="Eiuw2RqAJWja2RpXwZeM">
    <mxGraphModel dx="9428" dy="-2332" grid="1" gridSize="10" guides="1" tooltips="1" connect="1" arrows="1" fold="1" page="1" pageScale="1" pageWidth="827" pageHeight="1169" math="0" shadow="0">
      <root>
        <mxCell id="0" />
        <mxCell id="1" parent="0" />
        <mxCell id="FR0yReCO0dyW5Au92fSE-47" style="edgeStyle=orthogonalEdgeStyle;rounded=0;orthogonalLoop=1;jettySize=auto;html=1;entryX=1;entryY=0.5;entryDx=0;entryDy=0;" parent="1" edge="1">
          <mxGeometry relative="1" as="geometry">
            <mxPoint x="906.5599999999995" y="1662.5" as="targetPoint" />
          </mxGeometry>
        </mxCell>
        <mxCell id="FR0yReCO0dyW5Au92fSE-54" style="edgeStyle=orthogonalEdgeStyle;rounded=0;orthogonalLoop=1;jettySize=auto;html=1;" parent="1" edge="1">
          <mxGeometry relative="1" as="geometry">
            <mxPoint x="989.0699999999997" y="1875.1428571428578" as="targetPoint" />
          </mxGeometry>
        </mxCell>
        <mxCell id="vX9YrlGYbFmtOFFq3-KN-168" style="edgeStyle=orthogonalEdgeStyle;rounded=0;orthogonalLoop=1;jettySize=auto;html=1;entryX=0.25;entryY=1;entryDx=0;entryDy=0;" parent="1" edge="1">
          <mxGeometry relative="1" as="geometry">
            <mxPoint x="1760" y="4555.076923076923" as="sourcePoint" />
          </mxGeometry>
        </mxCell>
        <mxCell id="Zoaxqur5XHM5UnL22pkf-19" style="edgeStyle=orthogonalEdgeStyle;rounded=0;orthogonalLoop=1;jettySize=auto;html=1;entryX=1;entryY=0.5;entryDx=0;entryDy=0;" parent="1" edge="1">
          <mxGeometry relative="1" as="geometry">
            <mxPoint x="3725" y="4723.55" as="targetPoint" />
          </mxGeometry>
        </mxCell>
        <mxCell id="Zoaxqur5XHM5UnL22pkf-24" style="edgeStyle=orthogonalEdgeStyle;rounded=0;orthogonalLoop=1;jettySize=auto;html=1;entryX=1;entryY=0.5;entryDx=0;entryDy=0;" parent="1" edge="1">
          <mxGeometry relative="1" as="geometry">
            <mxPoint x="3762.5" y="4823.857142857143" as="sourcePoint" />
          </mxGeometry>
        </mxCell>
        <mxCell id="Zoaxqur5XHM5UnL22pkf-29" style="edgeStyle=orthogonalEdgeStyle;rounded=0;orthogonalLoop=1;jettySize=auto;html=1;entryX=1;entryY=0.5;entryDx=0;entryDy=0;" parent="1" edge="1">
          <mxGeometry relative="1" as="geometry">
            <mxPoint x="3725" y="4921.05" as="targetPoint" />
          </mxGeometry>
        </mxCell>
        <mxCell id="Zoaxqur5XHM5UnL22pkf-34" style="edgeStyle=orthogonalEdgeStyle;rounded=0;orthogonalLoop=1;jettySize=auto;html=1;entryX=1;entryY=0.5;entryDx=0;entryDy=0;" parent="1" edge="1">
          <mxGeometry relative="1" as="geometry">
            <mxPoint x="3762.5" y="5035.857142857143" as="sourcePoint" />
          </mxGeometry>
        </mxCell>
        <mxCell id="Zoaxqur5XHM5UnL22pkf-39" style="edgeStyle=orthogonalEdgeStyle;rounded=0;orthogonalLoop=1;jettySize=auto;html=1;entryX=1;entryY=0.5;entryDx=0;entryDy=0;" parent="1" edge="1">
          <mxGeometry relative="1" as="geometry">
            <mxPoint x="3725" y="5138.25" as="targetPoint" />
          </mxGeometry>
        </mxCell>
        <mxCell id="Zoaxqur5XHM5UnL22pkf-44" style="edgeStyle=orthogonalEdgeStyle;rounded=0;orthogonalLoop=1;jettySize=auto;html=1;entryX=1;entryY=0.5;entryDx=0;entryDy=0;" parent="1" edge="1">
          <mxGeometry relative="1" as="geometry">
            <mxPoint x="3762.5" y="5236.285714285715" as="sourcePoint" />
          </mxGeometry>
        </mxCell>
        <mxCell id="Zoaxqur5XHM5UnL22pkf-49" style="edgeStyle=orthogonalEdgeStyle;rounded=0;orthogonalLoop=1;jettySize=auto;html=1;entryX=1;entryY=0.5;entryDx=0;entryDy=0;" parent="1" edge="1">
          <mxGeometry relative="1" as="geometry">
            <mxPoint x="3727.5" y="5348.250000000001" as="targetPoint" />
          </mxGeometry>
        </mxCell>
        <mxCell id="Zoaxqur5XHM5UnL22pkf-54" style="edgeStyle=orthogonalEdgeStyle;rounded=0;orthogonalLoop=1;jettySize=auto;html=1;entryX=1;entryY=0.5;entryDx=0;entryDy=0;" parent="1" edge="1">
          <mxGeometry relative="1" as="geometry">
            <mxPoint x="3765" y="5464.142857142858" as="sourcePoint" />
          </mxGeometry>
        </mxCell>
        <mxCell id="Zoaxqur5XHM5UnL22pkf-59" style="edgeStyle=orthogonalEdgeStyle;rounded=0;orthogonalLoop=1;jettySize=auto;html=1;entryX=1;entryY=0.5;entryDx=0;entryDy=0;" parent="1" edge="1">
          <mxGeometry relative="1" as="geometry">
            <mxPoint x="3727.5" y="5566.25" as="targetPoint" />
          </mxGeometry>
        </mxCell>
        <mxCell id="Zoaxqur5XHM5UnL22pkf-84" value="" style="rounded=0;whiteSpace=wrap;html=1;fillColor=#ffe6cc;strokeColor=#d79b00;" parent="1" vertex="1">
          <mxGeometry x="-2200" y="6200" width="1450" height="1630" as="geometry" />
        </mxCell>
        <mxCell id="Zoaxqur5XHM5UnL22pkf-100" value="Firebase" style="text;html=1;align=center;verticalAlign=middle;whiteSpace=wrap;rounded=0;fontSize=80;fontStyle=1;fontColor=default;labelBackgroundColor=none;" parent="1" vertex="1">
          <mxGeometry x="-2188.75" y="6200" width="1347.5" height="220" as="geometry" />
        </mxCell>
        <mxCell id="Zoaxqur5XHM5UnL22pkf-266" style="edgeStyle=orthogonalEdgeStyle;rounded=0;orthogonalLoop=1;jettySize=auto;html=1;strokeWidth=2;exitX=1;exitY=0.5;exitDx=0;exitDy=0;" parent="1" source="Zoaxqur5XHM5UnL22pkf-258" target="Zoaxqur5XHM5UnL22pkf-252" edge="1">
          <mxGeometry relative="1" as="geometry" />
        </mxCell>
        <mxCell id="Zoaxqur5XHM5UnL22pkf-268" style="edgeStyle=orthogonalEdgeStyle;shape=connector;rounded=0;orthogonalLoop=1;jettySize=auto;html=1;entryX=0;entryY=0.5;entryDx=0;entryDy=0;strokeColor=default;strokeWidth=2;align=center;verticalAlign=middle;fontFamily=Helvetica;fontSize=11;fontColor=default;labelBackgroundColor=default;endArrow=classic;" parent="1" source="Zoaxqur5XHM5UnL22pkf-252" target="Zoaxqur5XHM5UnL22pkf-267" edge="1">
          <mxGeometry relative="1" as="geometry" />
        </mxCell>
        <mxCell id="Zoaxqur5XHM5UnL22pkf-252" value="manejarPOST()" style="rounded=0;whiteSpace=wrap;html=1;fontSize=20;fontStyle=1" parent="1" vertex="1">
          <mxGeometry x="-1693.75" y="6810.14" width="200" height="110" as="geometry" />
        </mxCell>
        <mxCell id="Zoaxqur5XHM5UnL22pkf-256" value="&lt;div style=&quot;line-height: 19px; white-space: pre;&quot;&gt;&lt;b&gt;URL: &lt;/b&gt;texto&lt;/div&gt;" style="rounded=0;whiteSpace=wrap;html=1;fontSize=16;fontColor=default;fontFamily=Helvetica;" parent="1" vertex="1">
          <mxGeometry x="-2087.75" y="6691.07" width="270" height="52.5" as="geometry" />
        </mxCell>
        <mxCell id="Zoaxqur5XHM5UnL22pkf-257" value="&lt;div style=&quot;line-height: 19px; white-space: pre;&quot;&gt;&lt;b&gt;Method: &lt;/b&gt;POST&lt;/div&gt;" style="rounded=0;whiteSpace=wrap;html=1;fontSize=16;fontColor=default;fontFamily=Helvetica;" parent="1" vertex="1">
          <mxGeometry x="-2087.75" y="6743.57" width="270" height="52.5" as="geometry" />
        </mxCell>
        <mxCell id="Zoaxqur5XHM5UnL22pkf-258" value="&lt;div style=&quot;line-height: 19px; white-space: pre;&quot;&gt;&lt;b&gt;Headers: &lt;/b&gt;&lt;/div&gt;&lt;div style=&quot;line-height: 19px; white-space: pre;&quot;&gt;&lt;b&gt;&lt;br&gt;&lt;/b&gt;&lt;/div&gt;&lt;div style=&quot;line-height: 19px; white-space: pre;&quot;&gt;&lt;b&gt;Content-Type: &lt;/b&gt;&quot; application/json;&lt;/div&gt;&lt;div style=&quot;line-height: 19px; white-space: pre;&quot;&gt;&lt;br&gt;&lt;/div&gt;&lt;div style=&quot;line-height: 19px; white-space: pre;&quot;&gt;charset = utf-8 &quot; &lt;/div&gt;" style="rounded=0;whiteSpace=wrap;html=1;fontSize=16;fontColor=default;fontFamily=Helvetica;" parent="1" vertex="1">
          <mxGeometry x="-2087.75" y="6796.07" width="270" height="138.13" as="geometry" />
        </mxCell>
        <mxCell id="Zoaxqur5XHM5UnL22pkf-259" value="&lt;div style=&quot;line-height: 19px; white-space: pre;&quot;&gt;&lt;span&gt;&lt;b style=&quot;&quot;&gt;Body: &lt;/b&gt;&lt;/span&gt;&lt;/div&gt;&lt;div style=&quot;line-height: 19px; white-space: pre;&quot;&gt;&lt;span&gt;&lt;b style=&quot;&quot;&gt;&lt;br&gt;&lt;/b&gt;&lt;/span&gt;&lt;/div&gt;&lt;div style=&quot;line-height: 19px; white-space: pre;&quot;&gt;&lt;span&gt;{&lt;/span&gt;&lt;/div&gt;&lt;div style=&quot;line-height: 19px; white-space: pre;&quot;&gt;&lt;span&gt;&lt;span style=&quot;white-space: pre;&quot;&gt;&#x9;&lt;span style=&quot;white-space: pre;&quot;&gt;&#x9;&lt;span style=&quot;white-space: pre;&quot;&gt;&#x9;&lt;/span&gt;        &lt;/span&gt;v&lt;/span&gt;alor: numero Z&lt;br&gt;&lt;/span&gt;&lt;/div&gt;&lt;div style=&quot;line-height: 19px; white-space: pre;&quot;&gt;&lt;span&gt;&lt;span style=&quot;white-space: pre;&quot;&gt;&#x9;&lt;/span&gt;&lt;span style=&quot;white-space: pre;&quot;&gt;&#x9;&lt;/span&gt;&lt;span style=&quot;white-space: pre;&quot;&gt;&#x9;&lt;/span&gt;    sensor: texto&lt;/span&gt;&lt;/div&gt;&lt;div style=&quot;line-height: 19px; white-space: pre;&quot;&gt;&lt;span style=&quot;background-color: transparent; color: light-dark(rgb(0, 0, 0), rgb(255, 255, 255));&quot;&gt;}&lt;/span&gt;&lt;/div&gt;" style="rounded=0;whiteSpace=wrap;html=1;fontSize=16;fontColor=default;fontFamily=Helvetica;align=center;" parent="1" vertex="1">
          <mxGeometry x="-2087.75" y="6934.2" width="270" height="180" as="geometry" />
        </mxCell>
        <mxCell id="Zoaxqur5XHM5UnL22pkf-267" value="&lt;div style=&quot;line-height: 19px; white-space: pre;&quot;&gt;&lt;b&gt;{ &quot;exito/error&quot;: booleano, &quot;mensaje&quot;: texto} o &lt;/b&gt;&lt;b style=&quot;background-color: transparent; color: light-dark(rgb(0, 0, 0), rgb(255, 255, 255));&quot;&gt;{ error : texto }&lt;/b&gt;&lt;/div&gt;" style="rounded=0;whiteSpace=wrap;html=1;fontSize=16;fontColor=default;fontFamily=Helvetica;align=center;" parent="1" vertex="1">
          <mxGeometry x="-1410" y="6775.14" width="540" height="180" as="geometry" />
        </mxCell>
        <mxCell id="Zoaxqur5XHM5UnL22pkf-270" style="edgeStyle=orthogonalEdgeStyle;rounded=0;orthogonalLoop=1;jettySize=auto;html=1;strokeWidth=2;exitX=1;exitY=0.5;exitDx=0;exitDy=0;" parent="1" source="Zoaxqur5XHM5UnL22pkf-275" target="Zoaxqur5XHM5UnL22pkf-272" edge="1">
          <mxGeometry relative="1" as="geometry" />
        </mxCell>
        <mxCell id="Zoaxqur5XHM5UnL22pkf-271" style="edgeStyle=orthogonalEdgeStyle;shape=connector;rounded=0;orthogonalLoop=1;jettySize=auto;html=1;entryX=0;entryY=0.5;entryDx=0;entryDy=0;strokeColor=default;strokeWidth=2;align=center;verticalAlign=middle;fontFamily=Helvetica;fontSize=11;fontColor=default;labelBackgroundColor=default;endArrow=classic;" parent="1" source="Zoaxqur5XHM5UnL22pkf-272" target="Zoaxqur5XHM5UnL22pkf-277" edge="1">
          <mxGeometry relative="1" as="geometry" />
        </mxCell>
        <mxCell id="Zoaxqur5XHM5UnL22pkf-272" value="manejarGET()" style="rounded=0;whiteSpace=wrap;html=1;fontSize=20;fontStyle=1" parent="1" vertex="1">
          <mxGeometry x="-1693.75" y="7399.070000000001" width="200" height="110" as="geometry" />
        </mxCell>
        <mxCell id="Zoaxqur5XHM5UnL22pkf-273" value="&lt;div style=&quot;line-height: 19px; white-space: pre;&quot;&gt;&lt;b&gt;URL: &lt;/b&gt;texto&lt;/div&gt;" style="rounded=0;whiteSpace=wrap;html=1;fontSize=16;fontColor=default;fontFamily=Helvetica;" parent="1" vertex="1">
          <mxGeometry x="-2087.75" y="7280" width="270" height="52.5" as="geometry" />
        </mxCell>
        <mxCell id="Zoaxqur5XHM5UnL22pkf-274" value="&lt;div style=&quot;line-height: 19px; white-space: pre;&quot;&gt;&lt;b&gt;Method: &lt;/b&gt;GET&lt;/div&gt;" style="rounded=0;whiteSpace=wrap;html=1;fontSize=16;fontColor=default;fontFamily=Helvetica;" parent="1" vertex="1">
          <mxGeometry x="-2087.75" y="7332.5" width="270" height="52.5" as="geometry" />
        </mxCell>
        <mxCell id="Zoaxqur5XHM5UnL22pkf-275" value="&lt;div style=&quot;line-height: 19px; white-space: pre;&quot;&gt;&lt;b&gt;Headers: &lt;/b&gt;&lt;/div&gt;&lt;div style=&quot;line-height: 19px; white-space: pre;&quot;&gt;&lt;b&gt;&lt;br&gt;&lt;/b&gt;&lt;/div&gt;&lt;div style=&quot;line-height: 19px; white-space: pre;&quot;&gt;&lt;b&gt;Content-Type: &lt;/b&gt;&quot; application/json;&lt;/div&gt;&lt;div style=&quot;line-height: 19px; white-space: pre;&quot;&gt;&lt;br&gt;&lt;/div&gt;&lt;div style=&quot;line-height: 19px; white-space: pre;&quot;&gt;charset = utf-8 &quot; &lt;/div&gt;" style="rounded=0;whiteSpace=wrap;html=1;fontSize=16;fontColor=default;fontFamily=Helvetica;" parent="1" vertex="1">
          <mxGeometry x="-2087.75" y="7385" width="270" height="138.13" as="geometry" />
        </mxCell>
        <mxCell id="Zoaxqur5XHM5UnL22pkf-276" value="&lt;div style=&quot;line-height: 19px; white-space: pre;&quot;&gt;&lt;span&gt;&lt;b style=&quot;&quot;&gt;Body: &lt;/b&gt;&lt;/span&gt;&lt;/div&gt;&lt;div style=&quot;line-height: 19px; white-space: pre;&quot;&gt;&lt;span&gt;&lt;b style=&quot;&quot;&gt;&lt;br&gt;&lt;/b&gt;&lt;/span&gt;&lt;/div&gt;&lt;div style=&quot;line-height: 19px; white-space: pre;&quot;&gt;&lt;div style=&quot;line-height: 19px;&quot;&gt;{&lt;/div&gt;&lt;div style=&quot;line-height: 19px;&quot;&gt;&#x9;&#x9;&#x9;       valor: numero Z&lt;br&gt;&lt;/div&gt;&lt;div style=&quot;line-height: 19px;&quot;&gt;&#x9;&#x9;&#x9;  sensor: texto&lt;/div&gt;&lt;div style=&quot;line-height: 19px;&quot;&gt;&lt;span style=&quot;background-color: transparent; color: light-dark(rgb(0, 0, 0), rgb(255, 255, 255));&quot;&gt;}&lt;/span&gt;&lt;/div&gt;&lt;/div&gt;" style="rounded=0;whiteSpace=wrap;html=1;fontSize=16;fontColor=default;fontFamily=Helvetica;align=center;" parent="1" vertex="1">
          <mxGeometry x="-2087.75" y="7523.13" width="270" height="180" as="geometry" />
        </mxCell>
        <mxCell id="Zoaxqur5XHM5UnL22pkf-277" value="&lt;div style=&quot;line-height: 19px; white-space: pre;&quot;&gt;&lt;b&gt;{ &quot;sensor&quot;: texto, &quot;valor&quot;: numero Z, &quot;tiempo&quot;: texto}&lt;/b&gt;&lt;/div&gt;&lt;div style=&quot;line-height: 19px; white-space: pre;&quot;&gt;&lt;b&gt;&lt;br&gt;&lt;/b&gt;&lt;/div&gt;&lt;div style=&quot;line-height: 19px; white-space: pre;&quot;&gt;&lt;b&gt;o&lt;/b&gt;&lt;/div&gt;&lt;div style=&quot;line-height: 19px; white-space: pre;&quot;&gt;&lt;b&gt;&lt;br&gt;&lt;/b&gt;&lt;/div&gt;&lt;div style=&quot;line-height: 19px; white-space: pre;&quot;&gt;&lt;b&gt;{ error : texto }&lt;/b&gt;&lt;/div&gt;" style="rounded=0;whiteSpace=wrap;html=1;fontSize=16;fontColor=default;fontFamily=Helvetica;align=center;" parent="1" vertex="1">
          <mxGeometry x="-1410" y="7364.070000000001" width="540" height="180" as="geometry" />
        </mxCell>
        <mxCell id="Zoaxqur5XHM5UnL22pkf-279" value="" style="rounded=0;whiteSpace=wrap;html=1;fillColor=#dae8fc;strokeColor=#6c8ebf;" parent="1" vertex="1">
          <mxGeometry x="-27.5" y="6269.07" width="1276.25" height="1410" as="geometry" />
        </mxCell>
        <mxCell id="Zoaxqur5XHM5UnL22pkf-280" value="LogicaDeNegocio" style="text;html=1;align=center;verticalAlign=middle;whiteSpace=wrap;rounded=0;fontSize=80;fontStyle=1;fontColor=default;labelBackgroundColor=none;fontFamily=Helvetica;" parent="1" vertex="1">
          <mxGeometry x="-145" y="6269.07" width="1441.25" height="220" as="geometry" />
        </mxCell>
        <mxCell id="Zoaxqur5XHM5UnL22pkf-281" style="edgeStyle=orthogonalEdgeStyle;rounded=0;orthogonalLoop=1;jettySize=auto;html=1;strokeWidth=2;exitX=1;exitY=0.5;exitDx=0;exitDy=0;" parent="1" target="Zoaxqur5XHM5UnL22pkf-283" edge="1">
          <mxGeometry relative="1" as="geometry">
            <mxPoint x="-340" y="7029.205000000001" as="sourcePoint" />
          </mxGeometry>
        </mxCell>
        <mxCell id="Zoaxqur5XHM5UnL22pkf-282" value="c" style="edgeStyle=orthogonalEdgeStyle;shape=connector;rounded=0;orthogonalLoop=1;jettySize=auto;html=1;strokeColor=default;strokeWidth=2;align=center;verticalAlign=middle;fontFamily=Helvetica;fontSize=11;fontColor=default;labelBackgroundColor=default;endArrow=classic;" parent="1" target="Zoaxqur5XHM5UnL22pkf-283" edge="1">
          <mxGeometry relative="1" as="geometry">
            <mxPoint x="240.25" y="7029.209999999999" as="sourcePoint" />
          </mxGeometry>
        </mxCell>
        <mxCell id="Zoaxqur5XHM5UnL22pkf-283" value="guardarMedida()" style="rounded=0;whiteSpace=wrap;html=1;fontSize=20;fontStyle=1" parent="1" vertex="1">
          <mxGeometry x="-216" y="6974.21" width="346.25" height="110" as="geometry" />
        </mxCell>
        <mxCell id="Zoaxqur5XHM5UnL22pkf-287" value="&lt;div style=&quot;line-height: 19px; white-space: pre;&quot;&gt;&lt;b&gt;sensor: texto&lt;/b&gt;&lt;/div&gt;&lt;div style=&quot;line-height: 19px; white-space: pre;&quot;&gt;&lt;b&gt;&lt;br&gt;&lt;/b&gt;&lt;/div&gt;&lt;div style=&quot;line-height: 19px; white-space: pre;&quot;&gt;&lt;b&gt;valor: numero N&lt;/b&gt;&lt;/div&gt;" style="rounded=0;whiteSpace=wrap;html=1;fontSize=16;fontColor=default;fontFamily=Helvetica;align=center;" parent="1" vertex="1">
          <mxGeometry x="-640" y="6939.21" width="300" height="180" as="geometry" />
        </mxCell>
        <mxCell id="Zoaxqur5XHM5UnL22pkf-290" style="edgeStyle=orthogonalEdgeStyle;shape=connector;rounded=0;orthogonalLoop=1;jettySize=auto;html=1;strokeColor=default;strokeWidth=2;align=center;verticalAlign=middle;fontFamily=Helvetica;fontSize=11;fontColor=default;labelBackgroundColor=default;endArrow=classic;" parent="1" target="Zoaxqur5XHM5UnL22pkf-291" edge="1">
          <mxGeometry relative="1" as="geometry">
            <mxPoint x="250" y="7463.139999999999" as="sourcePoint" />
          </mxGeometry>
        </mxCell>
        <mxCell id="Zoaxqur5XHM5UnL22pkf-291" value="obtenerMedida()" style="rounded=0;whiteSpace=wrap;html=1;fontSize=20;fontStyle=1" parent="1" vertex="1">
          <mxGeometry x="-226.25" y="7408.14" width="376.25" height="110" as="geometry" />
        </mxCell>
        <mxCell id="Zoaxqur5XHM5UnL22pkf-298" value="" style="rounded=0;whiteSpace=wrap;html=1;fillColor=#e1d5e7;strokeColor=#9673a6;" parent="1" vertex="1">
          <mxGeometry x="1500" y="6570" width="780" height="850" as="geometry" />
        </mxCell>
        <mxCell id="Zoaxqur5XHM5UnL22pkf-308" value="" style="shape=table;startSize=0;container=1;collapsible=0;childLayout=tableLayout;fontFamily=Helvetica;fontSize=11;fontColor=default;labelBackgroundColor=default;" parent="1" vertex="1">
          <mxGeometry x="1650" y="7010" width="540" height="230" as="geometry" />
        </mxCell>
        <mxCell id="Zoaxqur5XHM5UnL22pkf-309" value="" style="shape=tableRow;horizontal=0;startSize=0;swimlaneHead=0;swimlaneBody=0;strokeColor=inherit;top=0;left=0;bottom=0;right=0;collapsible=0;dropTarget=0;fillColor=none;points=[[0,0.5],[1,0.5]];portConstraint=eastwest;fontFamily=Helvetica;fontSize=22;fontColor=default;labelBackgroundColor=default;" parent="Zoaxqur5XHM5UnL22pkf-308" vertex="1">
          <mxGeometry width="540" height="128" as="geometry" />
        </mxCell>
        <mxCell id="Zoaxqur5XHM5UnL22pkf-310" value="&lt;font style=&quot;font-size: 22px;&quot;&gt;id&lt;/font&gt;" style="shape=partialRectangle;html=1;whiteSpace=wrap;connectable=0;strokeColor=inherit;overflow=hidden;fillColor=none;top=0;left=0;bottom=0;right=0;pointerEvents=1;fontFamily=Helvetica;fontSize=11;fontColor=default;labelBackgroundColor=default;" parent="Zoaxqur5XHM5UnL22pkf-309" vertex="1">
          <mxGeometry width="91" height="128" as="geometry">
            <mxRectangle width="91" height="128" as="alternateBounds" />
          </mxGeometry>
        </mxCell>
        <mxCell id="Zoaxqur5XHM5UnL22pkf-311" value="nombre" style="shape=partialRectangle;html=1;whiteSpace=wrap;connectable=0;strokeColor=inherit;overflow=hidden;fillColor=none;top=0;left=0;bottom=0;right=0;pointerEvents=1;fontFamily=Helvetica;fontSize=22;fontColor=default;labelBackgroundColor=default;" parent="Zoaxqur5XHM5UnL22pkf-309" vertex="1">
          <mxGeometry x="91" width="179" height="128" as="geometry">
            <mxRectangle width="179" height="128" as="alternateBounds" />
          </mxGeometry>
        </mxCell>
        <mxCell id="Zoaxqur5XHM5UnL22pkf-312" value="timestamp" style="shape=partialRectangle;html=1;whiteSpace=wrap;connectable=0;strokeColor=inherit;overflow=hidden;fillColor=none;top=0;left=0;bottom=0;right=0;pointerEvents=1;fontFamily=Helvetica;fontSize=22;fontColor=default;labelBackgroundColor=default;" parent="Zoaxqur5XHM5UnL22pkf-309" vertex="1">
          <mxGeometry x="270" width="135" height="128" as="geometry">
            <mxRectangle width="135" height="128" as="alternateBounds" />
          </mxGeometry>
        </mxCell>
        <mxCell id="Zoaxqur5XHM5UnL22pkf-313" value="valor" style="shape=partialRectangle;html=1;whiteSpace=wrap;connectable=0;strokeColor=inherit;overflow=hidden;fillColor=none;top=0;left=0;bottom=0;right=0;pointerEvents=1;fontFamily=Helvetica;fontSize=22;fontColor=default;labelBackgroundColor=default;" parent="Zoaxqur5XHM5UnL22pkf-309" vertex="1">
          <mxGeometry x="405" width="135" height="128" as="geometry">
            <mxRectangle width="135" height="128" as="alternateBounds" />
          </mxGeometry>
        </mxCell>
        <mxCell id="Zoaxqur5XHM5UnL22pkf-324" style="shape=tableRow;horizontal=0;startSize=0;swimlaneHead=0;swimlaneBody=0;strokeColor=inherit;top=0;left=0;bottom=0;right=0;collapsible=0;dropTarget=0;fillColor=none;points=[[0,0.5],[1,0.5]];portConstraint=eastwest;fontFamily=Helvetica;fontSize=11;fontColor=default;labelBackgroundColor=default;" parent="Zoaxqur5XHM5UnL22pkf-308" vertex="1">
          <mxGeometry y="128" width="540" height="102" as="geometry" />
        </mxCell>
        <mxCell id="Zoaxqur5XHM5UnL22pkf-325" value="numeros y letras" style="shape=partialRectangle;html=1;whiteSpace=wrap;connectable=0;strokeColor=inherit;overflow=hidden;fillColor=none;top=0;left=0;bottom=0;right=0;pointerEvents=1;fontFamily=Helvetica;fontSize=16;fontColor=default;labelBackgroundColor=default;" parent="Zoaxqur5XHM5UnL22pkf-324" vertex="1">
          <mxGeometry width="91" height="102" as="geometry">
            <mxRectangle width="91" height="102" as="alternateBounds" />
          </mxGeometry>
        </mxCell>
        <mxCell id="Zoaxqur5XHM5UnL22pkf-326" value="texto" style="shape=partialRectangle;html=1;whiteSpace=wrap;connectable=0;strokeColor=inherit;overflow=hidden;fillColor=none;top=0;left=0;bottom=0;right=0;pointerEvents=1;fontFamily=Helvetica;fontSize=16;fontColor=default;labelBackgroundColor=default;" parent="Zoaxqur5XHM5UnL22pkf-324" vertex="1">
          <mxGeometry x="91" width="179" height="102" as="geometry">
            <mxRectangle width="179" height="102" as="alternateBounds" />
          </mxGeometry>
        </mxCell>
        <mxCell id="Zoaxqur5XHM5UnL22pkf-327" value="texto" style="shape=partialRectangle;html=1;whiteSpace=wrap;connectable=0;strokeColor=inherit;overflow=hidden;fillColor=none;top=0;left=0;bottom=0;right=0;pointerEvents=1;fontFamily=Helvetica;fontSize=16;fontColor=default;labelBackgroundColor=default;" parent="Zoaxqur5XHM5UnL22pkf-324" vertex="1">
          <mxGeometry x="270" width="135" height="102" as="geometry">
            <mxRectangle width="135" height="102" as="alternateBounds" />
          </mxGeometry>
        </mxCell>
        <mxCell id="Zoaxqur5XHM5UnL22pkf-328" value="numero Z" style="shape=partialRectangle;html=1;whiteSpace=wrap;connectable=0;strokeColor=inherit;overflow=hidden;fillColor=none;top=0;left=0;bottom=0;right=0;pointerEvents=1;fontFamily=Helvetica;fontSize=16;fontColor=default;labelBackgroundColor=default;" parent="Zoaxqur5XHM5UnL22pkf-324" vertex="1">
          <mxGeometry x="405" width="135" height="102" as="geometry">
            <mxRectangle width="135" height="102" as="alternateBounds" />
          </mxGeometry>
        </mxCell>
        <mxCell id="Zoaxqur5XHM5UnL22pkf-329" value="BBDD" style="text;html=1;align=center;verticalAlign=middle;whiteSpace=wrap;rounded=0;fontSize=80;fontStyle=1;fontColor=default;labelBackgroundColor=none;fontFamily=Helvetica;" parent="1" vertex="1">
          <mxGeometry x="1500" y="6570" width="761.25" height="220" as="geometry" />
        </mxCell>
        <mxCell id="Zoaxqur5XHM5UnL22pkf-330" value="Tabla" style="rounded=0;whiteSpace=wrap;html=1;fontSize=20;fontStyle=1" parent="1" vertex="1">
          <mxGeometry x="1650" y="6900" width="540" height="110" as="geometry" />
        </mxCell>
        <mxCell id="Zoaxqur5XHM5UnL22pkf-333" value="" style="rounded=0;whiteSpace=wrap;html=1;fillColor=#fff2cc;strokeColor=#d6b656;" parent="1" vertex="1">
          <mxGeometry x="2571.25" y="6400" width="1460" height="1400" as="geometry" />
        </mxCell>
        <mxCell id="Zoaxqur5XHM5UnL22pkf-334" value="Web" style="text;html=1;align=center;verticalAlign=middle;whiteSpace=wrap;rounded=0;fontSize=80;fontStyle=1;fontColor=default;labelBackgroundColor=none;" parent="1" vertex="1">
          <mxGeometry x="2672.5" y="6400" width="1347.5" height="220" as="geometry" />
        </mxCell>
        <mxCell id="Zoaxqur5XHM5UnL22pkf-337" value="main()" style="rounded=0;whiteSpace=wrap;html=1;fontSize=20;fontStyle=1" parent="1" vertex="1">
          <mxGeometry x="3172.25" y="7399.07" width="200" height="110" as="geometry" />
        </mxCell>
        <mxCell id="Zoaxqur5XHM5UnL22pkf-343" style="edgeStyle=orthogonalEdgeStyle;rounded=0;orthogonalLoop=1;jettySize=auto;html=1;strokeWidth=2;exitX=1;exitY=0.5;exitDx=0;exitDy=0;" parent="1" source="Zoaxqur5XHM5UnL22pkf-348" target="Zoaxqur5XHM5UnL22pkf-345" edge="1">
          <mxGeometry relative="1" as="geometry" />
        </mxCell>
        <mxCell id="Zoaxqur5XHM5UnL22pkf-344" style="edgeStyle=orthogonalEdgeStyle;shape=connector;rounded=0;orthogonalLoop=1;jettySize=auto;html=1;entryX=0;entryY=0.5;entryDx=0;entryDy=0;strokeColor=default;strokeWidth=2;align=center;verticalAlign=middle;fontFamily=Helvetica;fontSize=11;fontColor=default;labelBackgroundColor=default;endArrow=classic;" parent="1" source="Zoaxqur5XHM5UnL22pkf-345" target="Zoaxqur5XHM5UnL22pkf-350" edge="1">
          <mxGeometry relative="1" as="geometry" />
        </mxCell>
        <mxCell id="Zoaxqur5XHM5UnL22pkf-345" value="obtenerMedida()" style="rounded=0;whiteSpace=wrap;html=1;fontSize=20;fontStyle=1" parent="1" vertex="1">
          <mxGeometry x="3165.25" y="6759.07" width="200" height="110" as="geometry" />
        </mxCell>
        <mxCell id="Zoaxqur5XHM5UnL22pkf-346" value="&lt;div style=&quot;line-height: 19px; white-space: pre;&quot;&gt;&lt;b&gt;URL: &lt;/b&gt;texto&lt;/div&gt;" style="rounded=0;whiteSpace=wrap;html=1;fontSize=16;fontColor=default;fontFamily=Helvetica;" parent="1" vertex="1">
          <mxGeometry x="2771.25" y="6640" width="270" height="52.5" as="geometry" />
        </mxCell>
        <mxCell id="Zoaxqur5XHM5UnL22pkf-347" value="&lt;div style=&quot;line-height: 19px; white-space: pre;&quot;&gt;&lt;b&gt;Method: &lt;/b&gt;GET&lt;/div&gt;" style="rounded=0;whiteSpace=wrap;html=1;fontSize=16;fontColor=default;fontFamily=Helvetica;" parent="1" vertex="1">
          <mxGeometry x="2771.25" y="6692.5" width="270" height="52.5" as="geometry" />
        </mxCell>
        <mxCell id="Zoaxqur5XHM5UnL22pkf-348" value="&lt;div style=&quot;line-height: 19px; white-space: pre;&quot;&gt;&lt;b&gt;Headers: &lt;/b&gt;&lt;/div&gt;&lt;div style=&quot;line-height: 19px; white-space: pre;&quot;&gt;&lt;b&gt;&lt;br&gt;&lt;/b&gt;&lt;/div&gt;&lt;div style=&quot;line-height: 19px; white-space: pre;&quot;&gt;&lt;b&gt;Content-Type: &lt;/b&gt;&quot; application/json;&lt;/div&gt;&lt;div style=&quot;line-height: 19px; white-space: pre;&quot;&gt;&lt;br&gt;&lt;/div&gt;&lt;div style=&quot;line-height: 19px; white-space: pre;&quot;&gt;charset = utf-8 &quot; &lt;/div&gt;" style="rounded=0;whiteSpace=wrap;html=1;fontSize=16;fontColor=default;fontFamily=Helvetica;" parent="1" vertex="1">
          <mxGeometry x="2771.25" y="6745" width="270" height="138.13" as="geometry" />
        </mxCell>
        <mxCell id="Zoaxqur5XHM5UnL22pkf-349" value="&lt;div style=&quot;line-height: 19px; white-space: pre;&quot;&gt;&lt;span&gt;&lt;b style=&quot;&quot;&gt;Body: &lt;/b&gt;&lt;/span&gt;&lt;/div&gt;&lt;div style=&quot;line-height: 19px; white-space: pre;&quot;&gt;&lt;span&gt;&lt;b style=&quot;&quot;&gt;&lt;br&gt;&lt;/b&gt;&lt;/span&gt;&lt;/div&gt;&lt;div style=&quot;line-height: 19px; white-space: pre;&quot;&gt;&lt;div style=&quot;line-height: 19px;&quot;&gt;{&lt;/div&gt;&lt;div style=&quot;line-height: 19px;&quot;&gt;&#x9;&#x9;&#x9;       valor: numero Z&lt;br&gt;&lt;/div&gt;&lt;div style=&quot;line-height: 19px;&quot;&gt;&#x9;&#x9;&#x9;  sensor: texto&lt;/div&gt;&lt;div style=&quot;line-height: 19px;&quot;&gt;&lt;span style=&quot;background-color: transparent; color: light-dark(rgb(0, 0, 0), rgb(255, 255, 255));&quot;&gt;}&lt;/span&gt;&lt;/div&gt;&lt;/div&gt;" style="rounded=0;whiteSpace=wrap;html=1;fontSize=16;fontColor=default;fontFamily=Helvetica;align=center;" parent="1" vertex="1">
          <mxGeometry x="2771.25" y="6883.130000000001" width="270" height="180" as="geometry" />
        </mxCell>
        <mxCell id="Zoaxqur5XHM5UnL22pkf-350" value="&lt;div style=&quot;line-height: 19px; white-space: pre;&quot;&gt;&lt;b&gt;resultado: { &quot;sensor&quot;: texto, &quot;valor&quot;: numero Z, &quot;tiempo&quot;: texto}&lt;/b&gt;&lt;/div&gt;&lt;div style=&quot;line-height: 19px; white-space: pre;&quot;&gt;&lt;b&gt;&lt;br&gt;&lt;/b&gt;&lt;/div&gt;&lt;div style=&quot;line-height: 19px; white-space: pre;&quot;&gt;&lt;b&gt;o&lt;/b&gt;&lt;/div&gt;&lt;div style=&quot;line-height: 19px; white-space: pre;&quot;&gt;&lt;b&gt;&lt;br&gt;&lt;/b&gt;&lt;/div&gt;&lt;div style=&quot;line-height: 19px; white-space: pre;&quot;&gt;&lt;b&gt;{ error : texto }&lt;/b&gt;&lt;/div&gt;" style="rounded=0;whiteSpace=wrap;html=1;fontSize=16;fontColor=default;fontFamily=Helvetica;align=center;" parent="1" vertex="1">
          <mxGeometry x="3449" y="6724.07" width="540" height="180" as="geometry" />
        </mxCell>
        <mxCell id="Zoaxqur5XHM5UnL22pkf-354" style="edgeStyle=orthogonalEdgeStyle;shape=connector;rounded=0;orthogonalLoop=1;jettySize=auto;html=1;entryX=0;entryY=0.5;entryDx=0;entryDy=0;strokeColor=default;strokeWidth=2;align=center;verticalAlign=middle;fontFamily=Helvetica;fontSize=11;fontColor=default;labelBackgroundColor=default;endArrow=classic;" parent="1" source="Zoaxqur5XHM5UnL22pkf-352" target="Zoaxqur5XHM5UnL22pkf-353" edge="1">
          <mxGeometry relative="1" as="geometry" />
        </mxCell>
        <mxCell id="Zoaxqur5XHM5UnL22pkf-352" value="&lt;div style=&quot;line-height: 19px; white-space: pre;&quot;&gt;&lt;b&gt;tiempo:texto&lt;/b&gt;&lt;/div&gt;" style="rounded=0;whiteSpace=wrap;html=1;fontSize=16;fontColor=default;fontFamily=Helvetica;align=center;strokeColor=default;verticalAlign=middle;fillColor=default;" parent="1" vertex="1">
          <mxGeometry x="2748.75" y="7150" width="300" height="180" as="geometry" />
        </mxCell>
        <mxCell id="Zoaxqur5XHM5UnL22pkf-356" style="edgeStyle=orthogonalEdgeStyle;shape=connector;rounded=0;orthogonalLoop=1;jettySize=auto;html=1;entryX=0;entryY=0.5;entryDx=0;entryDy=0;strokeColor=default;strokeWidth=2;align=center;verticalAlign=middle;fontFamily=Helvetica;fontSize=11;fontColor=default;labelBackgroundColor=default;endArrow=classic;" parent="1" source="Zoaxqur5XHM5UnL22pkf-353" target="Zoaxqur5XHM5UnL22pkf-355" edge="1">
          <mxGeometry relative="1" as="geometry" />
        </mxCell>
        <mxCell id="Zoaxqur5XHM5UnL22pkf-353" value="formatearTiempo()" style="rounded=0;whiteSpace=wrap;html=1;fontSize=20;fontStyle=1" parent="1" vertex="1">
          <mxGeometry x="3172.75" y="7185" width="200" height="110" as="geometry" />
        </mxCell>
        <mxCell id="Zoaxqur5XHM5UnL22pkf-355" value="&lt;div style=&quot;line-height: 19px; white-space: pre;&quot;&gt;&lt;b&gt;tiempo: tiempo&lt;/b&gt;&lt;/div&gt;" style="rounded=0;whiteSpace=wrap;html=1;fontSize=16;fontColor=default;fontFamily=Helvetica;align=center;strokeColor=default;verticalAlign=middle;fillColor=default;" parent="1" vertex="1">
          <mxGeometry x="3476.25" y="7150" width="300" height="180" as="geometry" />
        </mxCell>
        <mxCell id="Zoaxqur5XHM5UnL22pkf-357" value="App()" style="rounded=0;whiteSpace=wrap;html=1;fontSize=20;fontStyle=1" parent="1" vertex="1">
          <mxGeometry x="3172.25" y="7620" width="200" height="110" as="geometry" />
        </mxCell>
        <mxCell id="bl-7DmStRJng2AZFHfqL-2" value="Constructor()" style="rounded=0;whiteSpace=wrap;html=1;fontSize=20;fontStyle=1" parent="1" vertex="1">
          <mxGeometry x="-227.5" y="6599.07" width="376.25" height="110" as="geometry" />
        </mxCell>
        <mxCell id="bl-7DmStRJng2AZFHfqL-3" value="db: objeto&lt;div&gt;&lt;br&gt;&lt;/div&gt;&lt;div&gt;admin: objeto&lt;/div&gt;" style="rounded=0;whiteSpace=wrap;html=1;fontSize=20;fontStyle=1" parent="1" vertex="1">
          <mxGeometry x="532.5" y="6651.57" width="376.25" height="110" as="geometry" />
        </mxCell>
        <mxCell id="bl-7DmStRJng2AZFHfqL-4" value="" style="edgeStyle=orthogonalEdgeStyle;shape=connector;rounded=0;orthogonalLoop=1;jettySize=auto;html=1;strokeColor=default;strokeWidth=2;align=center;verticalAlign=middle;fontFamily=Helvetica;fontSize=11;fontColor=default;labelBackgroundColor=default;endArrow=classic;" parent="1" edge="1">
          <mxGeometry relative="1" as="geometry">
            <mxPoint x="148.75" y="6653.65" as="sourcePoint" />
            <mxPoint x="258.25" y="6653.789999999999" as="targetPoint" />
          </mxGeometry>
        </mxCell>
      </root>
    </mxGraphModel>
  </diagram>
</mxfile>
